<mxfile host="app.diagrams.net" modified="2024-05-14T19:21:07.077Z" agent="Mozilla/5.0 (X11; Linux x86_64) AppleWebKit/537.36 (KHTML, like Gecko) Chrome/124.0.0.0 Safari/537.36" etag="h_MT3e5XetpgGCUZde5g" version="24.3.1" type="device">
  <diagram id="R2lEEEUBdFMjLlhIrx00" name="Page-1">
    <mxGraphModel dx="1100" dy="1616" grid="1" gridSize="9" guides="1" tooltips="1" connect="1" arrows="1" fold="1" page="1" pageScale="1" pageWidth="850" pageHeight="1100" background="none" math="0" shadow="0" extFonts="Permanent Marker^https://fonts.googleapis.com/css?family=Permanent+Marker">
      <root>
        <mxCell id="0" />
        <mxCell id="1" parent="0" />
        <mxCell id="nJQW16D-HQWV5URqUr7l-24" value="" style="edgeStyle=orthogonalEdgeStyle;rounded=0;orthogonalLoop=1;jettySize=auto;html=1;" parent="1" source="nJQW16D-HQWV5URqUr7l-3" target="nJQW16D-HQWV5URqUr7l-23" edge="1">
          <mxGeometry relative="1" as="geometry" />
        </mxCell>
        <mxCell id="nJQW16D-HQWV5URqUr7l-3" value="&lt;span style=&quot;font-size: 20px;&quot;&gt;Persona&lt;/span&gt;" style="whiteSpace=wrap;html=1;labelBackgroundColor=none;rounded=0;strokeWidth=2;" parent="1" vertex="1">
          <mxGeometry x="612" y="-1053" width="90" height="45" as="geometry" />
        </mxCell>
        <mxCell id="nJQW16D-HQWV5URqUr7l-6" value="&lt;span style=&quot;font-size: 20px;&quot;&gt;Directores&lt;/span&gt;" style="whiteSpace=wrap;html=1;labelBackgroundColor=none;rounded=0;strokeWidth=2;" parent="1" vertex="1">
          <mxGeometry x="522" y="-945" width="90" height="45" as="geometry" />
        </mxCell>
        <mxCell id="nJQW16D-HQWV5URqUr7l-7" value="&lt;font style=&quot;font-size: 20px;&quot;&gt;Actores&lt;/font&gt;" style="whiteSpace=wrap;html=1;labelBackgroundColor=none;rounded=0;strokeWidth=2;" parent="1" vertex="1">
          <mxGeometry x="711" y="-945" width="90" height="45" as="geometry" />
        </mxCell>
        <mxCell id="nJQW16D-HQWV5URqUr7l-30" value="" style="edgeStyle=none;rounded=0;orthogonalLoop=1;jettySize=auto;html=1;entryX=1;entryY=0;entryDx=0;entryDy=0;exitX=0;exitY=0.5;exitDx=0;exitDy=0;" parent="1" source="nJQW16D-HQWV5URqUr7l-8" target="nJQW16D-HQWV5URqUr7l-28" edge="1">
          <mxGeometry relative="1" as="geometry" />
        </mxCell>
        <mxCell id="nJQW16D-HQWV5URqUr7l-8" value="&lt;font style=&quot;font-size: 20px;&quot;&gt;Peliculas&lt;/font&gt;" style="whiteSpace=wrap;html=1;labelBackgroundColor=none;rounded=0;strokeWidth=2;" parent="1" vertex="1">
          <mxGeometry x="126" y="-1053" width="90" height="45" as="geometry" />
        </mxCell>
        <mxCell id="nJQW16D-HQWV5URqUr7l-10" value="&lt;font style=&quot;font-size: 20px;&quot;&gt;Funciones&lt;/font&gt;" style="whiteSpace=wrap;html=1;labelBackgroundColor=none;rounded=0;strokeWidth=2;" parent="1" vertex="1">
          <mxGeometry x="126" y="-828" width="90" height="45" as="geometry" />
        </mxCell>
        <mxCell id="nJQW16D-HQWV5URqUr7l-11" value="&lt;font style=&quot;font-size: 20px;&quot;&gt;Salas&lt;/font&gt;" style="whiteSpace=wrap;html=1;labelBackgroundColor=none;rounded=0;strokeWidth=2;" parent="1" vertex="1">
          <mxGeometry x="405" y="-828" width="90" height="45" as="geometry" />
        </mxCell>
        <mxCell id="nJQW16D-HQWV5URqUr7l-12" value="&lt;font style=&quot;font-size: 20px;&quot;&gt;Cine&lt;/font&gt;" style="whiteSpace=wrap;html=1;labelBackgroundColor=none;rounded=0;strokeWidth=2;" parent="1" vertex="1">
          <mxGeometry x="239" y="-720" width="90" height="45" as="geometry" />
        </mxCell>
        <mxCell id="nJQW16D-HQWV5URqUr7l-18" value="" style="edgeStyle=none;orthogonalLoop=1;jettySize=auto;html=1;rounded=0;entryX=1;entryY=0.25;entryDx=0;entryDy=0;exitX=0.032;exitY=0.005;exitDx=0;exitDy=0;exitPerimeter=0;" parent="1" source="nJQW16D-HQWV5URqUr7l-23" target="nJQW16D-HQWV5URqUr7l-6" edge="1">
          <mxGeometry width="80" relative="1" as="geometry">
            <mxPoint x="622.15875" y="-962.985" as="sourcePoint" />
            <mxPoint x="630" y="-936" as="targetPoint" />
            <Array as="points" />
          </mxGeometry>
        </mxCell>
        <mxCell id="nJQW16D-HQWV5URqUr7l-22" value="" style="edgeStyle=none;orthogonalLoop=1;jettySize=auto;html=1;rounded=0;entryX=0;entryY=0.25;entryDx=0;entryDy=0;exitX=0.006;exitY=0.977;exitDx=0;exitDy=0;exitPerimeter=0;" parent="1" source="nJQW16D-HQWV5URqUr7l-23" target="nJQW16D-HQWV5URqUr7l-7" edge="1">
          <mxGeometry width="80" relative="1" as="geometry">
            <mxPoint x="691.1012500000002" y="-961.995" as="sourcePoint" />
            <mxPoint x="621" y="-934" as="targetPoint" />
            <Array as="points" />
          </mxGeometry>
        </mxCell>
        <mxCell id="nJQW16D-HQWV5URqUr7l-23" value="&lt;p style=&quot;line-height: 120%;&quot;&gt;is_a&lt;/p&gt;" style="triangle;whiteSpace=wrap;html=1;labelBackgroundColor=none;rounded=0;strokeWidth=2;align=center;verticalAlign=middle;rotation=-90;labelPosition=center;verticalLabelPosition=middle;textDirection=vertical-rl;spacingTop=0;spacingRight=20;" parent="1" vertex="1">
          <mxGeometry x="637.5" y="-999.5" width="39" height="54.5" as="geometry" />
        </mxCell>
        <mxCell id="nJQW16D-HQWV5URqUr7l-28" value="f_estreno_Arg" style="ellipse;whiteSpace=wrap;html=1;" parent="1" vertex="1">
          <mxGeometry y="-1008" width="89" height="20" as="geometry" />
        </mxCell>
        <mxCell id="nJQW16D-HQWV5URqUr7l-31" value="t_español" style="ellipse;whiteSpace=wrap;html=1;" parent="1" vertex="1">
          <mxGeometry x="239" y="-1048" width="67" height="20" as="geometry" />
        </mxCell>
        <mxCell id="nJQW16D-HQWV5URqUr7l-32" value="t_original" style="ellipse;whiteSpace=wrap;html=1;" parent="1" vertex="1">
          <mxGeometry x="126" y="-1089" width="62" height="20" as="geometry" />
        </mxCell>
        <mxCell id="nJQW16D-HQWV5URqUr7l-33" value="t_distribucion" style="ellipse;whiteSpace=wrap;html=1;" parent="1" vertex="1">
          <mxGeometry x="33" y="-1089" width="88" height="20" as="geometry" />
        </mxCell>
        <mxCell id="nJQW16D-HQWV5URqUr7l-34" value="resumen" style="ellipse;whiteSpace=wrap;html=1;" parent="1" vertex="1">
          <mxGeometry x="18" y="-1037.75" width="53" height="20" as="geometry" />
        </mxCell>
        <mxCell id="nJQW16D-HQWV5URqUr7l-37" value="genero" style="ellipse;whiteSpace=wrap;html=1;" parent="1" vertex="1">
          <mxGeometry x="246" y="-1019.5" width="53" height="20" as="geometry" />
        </mxCell>
        <mxCell id="nJQW16D-HQWV5URqUr7l-38" value="i_original" style="ellipse;whiteSpace=wrap;html=1;" parent="1" vertex="1">
          <mxGeometry x="246" y="-997.75" width="63" height="20" as="geometry" />
        </mxCell>
        <mxCell id="nJQW16D-HQWV5URqUr7l-39" style="edgeStyle=none;rounded=0;orthogonalLoop=1;jettySize=auto;html=1;exitX=0.5;exitY=0;exitDx=0;exitDy=0;" parent="1" source="nJQW16D-HQWV5URqUr7l-34" target="nJQW16D-HQWV5URqUr7l-34" edge="1">
          <mxGeometry relative="1" as="geometry" />
        </mxCell>
        <mxCell id="nJQW16D-HQWV5URqUr7l-40" value="&lt;u&gt;id_p&lt;/u&gt;" style="ellipse;whiteSpace=wrap;html=1;" parent="1" vertex="1">
          <mxGeometry x="18" y="-1063.5" width="53" height="20" as="geometry" />
        </mxCell>
        <mxCell id="nJQW16D-HQWV5URqUr7l-41" value="clasificacion" style="ellipse;whiteSpace=wrap;html=1;" parent="1" vertex="1">
          <mxGeometry x="18" y="-982.25" width="71" height="20" as="geometry" />
        </mxCell>
        <mxCell id="nJQW16D-HQWV5URqUr7l-42" value="año_prod" style="ellipse;whiteSpace=wrap;html=1;" parent="1" vertex="1">
          <mxGeometry x="239" y="-975.75" width="62" height="20" as="geometry" />
        </mxCell>
        <mxCell id="nJQW16D-HQWV5URqUr7l-43" value="url" style="ellipse;whiteSpace=wrap;html=1;" parent="1" vertex="1">
          <mxGeometry x="180" y="-982.25" width="53" height="20" as="geometry" />
        </mxCell>
        <mxCell id="nJQW16D-HQWV5URqUr7l-44" value="duracion" style="ellipse;whiteSpace=wrap;html=1;" parent="1" vertex="1">
          <mxGeometry x="45" y="-960.25" width="53" height="20" as="geometry" />
        </mxCell>
        <mxCell id="nJQW16D-HQWV5URqUr7l-47" value="" style="edgeStyle=none;rounded=0;orthogonalLoop=1;jettySize=auto;html=1;entryX=1;entryY=0.5;entryDx=0;entryDy=0;exitX=0;exitY=0.25;exitDx=0;exitDy=0;" parent="1" source="nJQW16D-HQWV5URqUr7l-8" target="nJQW16D-HQWV5URqUr7l-34" edge="1">
          <mxGeometry relative="1" as="geometry">
            <mxPoint x="135" y="-1062" as="sourcePoint" />
            <mxPoint x="116" y="-1064" as="targetPoint" />
          </mxGeometry>
        </mxCell>
        <mxCell id="nJQW16D-HQWV5URqUr7l-48" value="" style="edgeStyle=none;rounded=0;orthogonalLoop=1;jettySize=auto;html=1;entryX=1;entryY=0.5;entryDx=0;entryDy=0;exitX=0;exitY=0;exitDx=0;exitDy=0;" parent="1" source="nJQW16D-HQWV5URqUr7l-8" target="nJQW16D-HQWV5URqUr7l-40" edge="1">
          <mxGeometry relative="1" as="geometry">
            <mxPoint x="145" y="-1062" as="sourcePoint" />
            <mxPoint x="126" y="-1064" as="targetPoint" />
          </mxGeometry>
        </mxCell>
        <mxCell id="nJQW16D-HQWV5URqUr7l-49" value="" style="edgeStyle=none;rounded=0;orthogonalLoop=1;jettySize=auto;html=1;entryX=1;entryY=0;entryDx=0;entryDy=0;exitX=0;exitY=0.75;exitDx=0;exitDy=0;" parent="1" source="nJQW16D-HQWV5URqUr7l-8" target="nJQW16D-HQWV5URqUr7l-41" edge="1">
          <mxGeometry relative="1" as="geometry">
            <mxPoint x="162" y="-999" as="sourcePoint" />
            <mxPoint x="143" y="-1001" as="targetPoint" />
          </mxGeometry>
        </mxCell>
        <mxCell id="nJQW16D-HQWV5URqUr7l-50" value="" style="edgeStyle=none;rounded=0;orthogonalLoop=1;jettySize=auto;html=1;entryX=0.772;entryY=0;entryDx=0;entryDy=0;exitX=0;exitY=1;exitDx=0;exitDy=0;entryPerimeter=0;" parent="1" source="nJQW16D-HQWV5URqUr7l-8" target="nJQW16D-HQWV5URqUr7l-44" edge="1">
          <mxGeometry relative="1" as="geometry">
            <mxPoint x="171" y="-990" as="sourcePoint" />
            <mxPoint x="152" y="-992" as="targetPoint" />
          </mxGeometry>
        </mxCell>
        <mxCell id="nJQW16D-HQWV5URqUr7l-51" value="" style="edgeStyle=none;rounded=0;orthogonalLoop=1;jettySize=auto;html=1;entryX=0.383;entryY=-0.021;entryDx=0;entryDy=0;exitX=0.604;exitY=0.991;exitDx=0;exitDy=0;exitPerimeter=0;entryPerimeter=0;" parent="1" source="nJQW16D-HQWV5URqUr7l-8" target="nJQW16D-HQWV5URqUr7l-43" edge="1">
          <mxGeometry relative="1" as="geometry">
            <mxPoint x="135" y="-1008" as="sourcePoint" />
            <mxPoint x="161" y="-983" as="targetPoint" />
          </mxGeometry>
        </mxCell>
        <mxCell id="nJQW16D-HQWV5URqUr7l-52" value="" style="edgeStyle=none;rounded=0;orthogonalLoop=1;jettySize=auto;html=1;exitX=0.75;exitY=1;exitDx=0;exitDy=0;entryX=0;entryY=0;entryDx=0;entryDy=0;" parent="1" source="nJQW16D-HQWV5URqUr7l-8" target="nJQW16D-HQWV5URqUr7l-42" edge="1">
          <mxGeometry relative="1" as="geometry">
            <mxPoint x="189" y="-972" as="sourcePoint" />
            <mxPoint x="198" y="-981" as="targetPoint" />
          </mxGeometry>
        </mxCell>
        <mxCell id="nJQW16D-HQWV5URqUr7l-53" value="" style="edgeStyle=none;rounded=0;orthogonalLoop=1;jettySize=auto;html=1;exitX=1;exitY=0.75;exitDx=0;exitDy=0;entryX=0;entryY=0.5;entryDx=0;entryDy=0;" parent="1" source="nJQW16D-HQWV5URqUr7l-8" target="nJQW16D-HQWV5URqUr7l-38" edge="1">
          <mxGeometry relative="1" as="geometry">
            <mxPoint x="198" y="-963" as="sourcePoint" />
            <mxPoint x="179" y="-965" as="targetPoint" />
          </mxGeometry>
        </mxCell>
        <mxCell id="nJQW16D-HQWV5URqUr7l-54" value="" style="edgeStyle=none;rounded=0;orthogonalLoop=1;jettySize=auto;html=1;exitX=1;exitY=0.5;exitDx=0;exitDy=0;entryX=0;entryY=0.5;entryDx=0;entryDy=0;" parent="1" source="nJQW16D-HQWV5URqUr7l-8" target="nJQW16D-HQWV5URqUr7l-37" edge="1">
          <mxGeometry relative="1" as="geometry">
            <mxPoint x="207" y="-954" as="sourcePoint" />
            <mxPoint x="188" y="-956" as="targetPoint" />
          </mxGeometry>
        </mxCell>
        <mxCell id="nJQW16D-HQWV5URqUr7l-55" value="" style="edgeStyle=none;rounded=0;orthogonalLoop=1;jettySize=auto;html=1;exitX=1;exitY=0.25;exitDx=0;exitDy=0;entryX=0;entryY=0.5;entryDx=0;entryDy=0;" parent="1" source="nJQW16D-HQWV5URqUr7l-8" target="nJQW16D-HQWV5URqUr7l-31" edge="1">
          <mxGeometry relative="1" as="geometry">
            <mxPoint x="216" y="-945" as="sourcePoint" />
            <mxPoint x="197" y="-947" as="targetPoint" />
          </mxGeometry>
        </mxCell>
        <mxCell id="nJQW16D-HQWV5URqUr7l-56" value="" style="edgeStyle=none;rounded=0;orthogonalLoop=1;jettySize=auto;html=1;exitX=0.5;exitY=0;exitDx=0;exitDy=0;entryX=0.5;entryY=1;entryDx=0;entryDy=0;" parent="1" source="nJQW16D-HQWV5URqUr7l-8" target="nJQW16D-HQWV5URqUr7l-32" edge="1">
          <mxGeometry relative="1" as="geometry">
            <mxPoint x="225" y="-936" as="sourcePoint" />
            <mxPoint x="206" y="-938" as="targetPoint" />
          </mxGeometry>
        </mxCell>
        <mxCell id="nJQW16D-HQWV5URqUr7l-57" value="" style="edgeStyle=none;rounded=0;orthogonalLoop=1;jettySize=auto;html=1;exitX=0.145;exitY=-0.008;exitDx=0;exitDy=0;entryX=0.539;entryY=1.005;entryDx=0;entryDy=0;entryPerimeter=0;exitPerimeter=0;" parent="1" source="nJQW16D-HQWV5URqUr7l-8" target="nJQW16D-HQWV5URqUr7l-33" edge="1">
          <mxGeometry relative="1" as="geometry">
            <mxPoint x="234" y="-927" as="sourcePoint" />
            <mxPoint x="215" y="-929" as="targetPoint" />
          </mxGeometry>
        </mxCell>
        <mxCell id="nJQW16D-HQWV5URqUr7l-59" value="nacionalidad" style="ellipse;whiteSpace=wrap;html=1;" parent="1" vertex="1">
          <mxGeometry x="720" y="-1083.5" width="72" height="20" as="geometry" />
        </mxCell>
        <mxCell id="nJQW16D-HQWV5URqUr7l-60" value="" style="edgeStyle=none;rounded=0;orthogonalLoop=1;jettySize=auto;html=1;exitX=0.5;exitY=0;exitDx=0;exitDy=0;entryX=0.5;entryY=1;entryDx=0;entryDy=0;" parent="1" source="nJQW16D-HQWV5URqUr7l-3" target="nJQW16D-HQWV5URqUr7l-58" edge="1">
          <mxGeometry relative="1" as="geometry">
            <mxPoint x="531" y="-1062" as="sourcePoint" />
            <mxPoint x="562" y="-1043" as="targetPoint" />
          </mxGeometry>
        </mxCell>
        <mxCell id="nJQW16D-HQWV5URqUr7l-62" value="" style="edgeStyle=none;rounded=0;orthogonalLoop=1;jettySize=auto;html=1;exitX=1;exitY=0.25;exitDx=0;exitDy=0;entryX=0;entryY=1;entryDx=0;entryDy=0;" parent="1" source="nJQW16D-HQWV5URqUr7l-3" target="nJQW16D-HQWV5URqUr7l-59" edge="1">
          <mxGeometry relative="1" as="geometry">
            <mxPoint x="645" y="-1038" as="sourcePoint" />
            <mxPoint x="630" y="-1054" as="targetPoint" />
          </mxGeometry>
        </mxCell>
        <mxCell id="nJQW16D-HQWV5URqUr7l-70" value="Dirige" style="rhombus;whiteSpace=wrap;html=1;labelBackgroundColor=none;rounded=0;strokeWidth=2;" parent="1" vertex="1">
          <mxGeometry x="425" y="-1063.5" width="52" height="35.5" as="geometry" />
        </mxCell>
        <mxCell id="nJQW16D-HQWV5URqUr7l-71" value="Protagoniza" style="rhombus;whiteSpace=wrap;html=1;labelBackgroundColor=none;rounded=0;strokeWidth=2;" parent="1" vertex="1">
          <mxGeometry x="423" y="-1025.5" width="99" height="35.5" as="geometry" />
        </mxCell>
        <mxCell id="nJQW16D-HQWV5URqUr7l-80" value="N" style="edgeStyle=none;orthogonalLoop=1;jettySize=auto;html=1;rounded=0;endArrow=none;endFill=0;entryX=0;entryY=0.5;entryDx=0;entryDy=0;exitX=0.75;exitY=0;exitDx=0;exitDy=0;" parent="1" source="nJQW16D-HQWV5URqUr7l-8" target="nJQW16D-HQWV5URqUr7l-70" edge="1">
          <mxGeometry x="0.6905" y="9" width="80" relative="1" as="geometry">
            <mxPoint x="325" y="-1078" as="sourcePoint" />
            <mxPoint x="405" y="-1078" as="targetPoint" />
            <Array as="points">
              <mxPoint x="225" y="-1089" />
              <mxPoint x="306" y="-1089" />
              <mxPoint x="369" y="-1089" />
              <mxPoint x="405" y="-1089" />
              <mxPoint x="405" y="-1046" />
            </Array>
            <mxPoint as="offset" />
          </mxGeometry>
        </mxCell>
        <mxCell id="nJQW16D-HQWV5URqUr7l-81" value="N" style="edgeStyle=none;orthogonalLoop=1;jettySize=auto;html=1;rounded=0;entryX=0;entryY=0.5;entryDx=0;entryDy=0;exitX=0.889;exitY=0.022;exitDx=0;exitDy=0;exitPerimeter=0;endArrow=none;endFill=0;" parent="1" source="nJQW16D-HQWV5URqUr7l-8" target="nJQW16D-HQWV5URqUr7l-71" edge="1">
          <mxGeometry x="0.638" y="18" width="80" relative="1" as="geometry">
            <mxPoint x="315" y="-918" as="sourcePoint" />
            <mxPoint x="395" y="-918" as="targetPoint" />
            <Array as="points">
              <mxPoint x="243" y="-1080" />
              <mxPoint x="333" y="-1080" />
              <mxPoint x="387" y="-1080" />
              <mxPoint x="387" y="-1008" />
            </Array>
            <mxPoint as="offset" />
          </mxGeometry>
        </mxCell>
        <mxCell id="nJQW16D-HQWV5URqUr7l-82" value="Reparto" style="rhombus;whiteSpace=wrap;html=1;labelBackgroundColor=none;rounded=0;strokeWidth=2;" parent="1" vertex="1">
          <mxGeometry x="396" y="-975.75" width="58" height="35.5" as="geometry" />
        </mxCell>
        <mxCell id="nJQW16D-HQWV5URqUr7l-84" value="N" style="edgeStyle=none;orthogonalLoop=1;jettySize=auto;html=1;rounded=0;entryX=0;entryY=0.5;entryDx=0;entryDy=0;exitX=1;exitY=0;exitDx=0;exitDy=0;endArrow=none;endFill=0;" parent="1" source="nJQW16D-HQWV5URqUr7l-8" target="nJQW16D-HQWV5URqUr7l-82" edge="1">
          <mxGeometry x="0.8384" y="14" width="80" relative="1" as="geometry">
            <mxPoint x="216" y="-1053" as="sourcePoint" />
            <mxPoint x="422" y="-990" as="targetPoint" />
            <Array as="points">
              <mxPoint x="243" y="-1071" />
              <mxPoint x="360" y="-1071" />
              <mxPoint x="360" y="-958" />
            </Array>
            <mxPoint as="offset" />
          </mxGeometry>
        </mxCell>
        <mxCell id="nJQW16D-HQWV5URqUr7l-89" value="N" style="edgeStyle=none;orthogonalLoop=1;jettySize=auto;html=1;rounded=0;exitX=1;exitY=0.5;exitDx=0;exitDy=0;entryX=0.189;entryY=-0.044;entryDx=0;entryDy=0;endArrow=none;endFill=0;entryPerimeter=0;" parent="1" source="nJQW16D-HQWV5URqUr7l-70" target="nJQW16D-HQWV5URqUr7l-6" edge="1">
          <mxGeometry x="-0.7168" y="17" width="80" relative="1" as="geometry">
            <mxPoint x="513" y="-1035" as="sourcePoint" />
            <mxPoint x="620" y="-1017" as="targetPoint" />
            <Array as="points">
              <mxPoint x="540" y="-1044" />
            </Array>
            <mxPoint as="offset" />
          </mxGeometry>
        </mxCell>
        <mxCell id="nJQW16D-HQWV5URqUr7l-90" value="N" style="edgeStyle=none;orthogonalLoop=1;jettySize=auto;html=1;rounded=0;exitX=0.5;exitY=1;exitDx=0;exitDy=0;entryX=0;entryY=1;entryDx=0;entryDy=0;endArrow=none;endFill=0;" parent="1" source="nJQW16D-HQWV5URqUr7l-71" target="nJQW16D-HQWV5URqUr7l-7" edge="1">
          <mxGeometry x="-0.8634" y="9" width="80" relative="1" as="geometry">
            <mxPoint x="477" y="-909" as="sourcePoint" />
            <mxPoint x="557" y="-909" as="targetPoint" />
            <Array as="points">
              <mxPoint x="486" y="-972" />
              <mxPoint x="486" y="-891" />
              <mxPoint x="603" y="-891" />
              <mxPoint x="666" y="-891" />
            </Array>
            <mxPoint as="offset" />
          </mxGeometry>
        </mxCell>
        <mxCell id="nJQW16D-HQWV5URqUr7l-91" value="N" style="edgeStyle=none;orthogonalLoop=1;jettySize=auto;html=1;rounded=0;exitX=1;exitY=1;exitDx=0;exitDy=0;entryX=0.5;entryY=1;entryDx=0;entryDy=0;endArrow=none;endFill=0;" parent="1" source="nJQW16D-HQWV5URqUr7l-82" target="nJQW16D-HQWV5URqUr7l-7" edge="1">
          <mxGeometry x="-0.9223" y="7" width="80" relative="1" as="geometry">
            <mxPoint x="450" y="-900" as="sourcePoint" />
            <mxPoint x="530" y="-900" as="targetPoint" />
            <Array as="points">
              <mxPoint x="459" y="-873" />
              <mxPoint x="621" y="-873" />
              <mxPoint x="693" y="-873" />
              <mxPoint x="756" y="-882" />
            </Array>
            <mxPoint as="offset" />
          </mxGeometry>
        </mxCell>
        <mxCell id="nJQW16D-HQWV5URqUr7l-92" value="Exibe" style="rhombus;whiteSpace=wrap;html=1;labelBackgroundColor=none;rounded=0;strokeWidth=2;" parent="1" vertex="1">
          <mxGeometry x="148" y="-909.5" width="46" height="35.5" as="geometry" />
        </mxCell>
        <mxCell id="nJQW16D-HQWV5URqUr7l-93" value="1" style="edgeStyle=none;orthogonalLoop=1;jettySize=auto;html=1;rounded=0;exitX=0.5;exitY=1;exitDx=0;exitDy=0;entryX=0.5;entryY=0;entryDx=0;entryDy=0;endArrow=none;endFill=0;" parent="1" source="nJQW16D-HQWV5URqUr7l-8" target="nJQW16D-HQWV5URqUr7l-92" edge="1">
          <mxGeometry x="0.4619" y="9" width="80" relative="1" as="geometry">
            <mxPoint x="324" y="-774" as="sourcePoint" />
            <mxPoint x="404" y="-774" as="targetPoint" />
            <Array as="points" />
            <mxPoint as="offset" />
          </mxGeometry>
        </mxCell>
        <mxCell id="nJQW16D-HQWV5URqUr7l-94" value="N" style="edgeStyle=none;orthogonalLoop=1;jettySize=auto;html=1;rounded=0;exitX=0.5;exitY=1;exitDx=0;exitDy=0;entryX=0.5;entryY=0;entryDx=0;entryDy=0;endArrow=none;endFill=0;" parent="1" source="nJQW16D-HQWV5URqUr7l-92" target="nJQW16D-HQWV5URqUr7l-10" edge="1">
          <mxGeometry x="-0.138" y="12" width="80" relative="1" as="geometry">
            <mxPoint x="234" y="-837" as="sourcePoint" />
            <mxPoint x="314" y="-837" as="targetPoint" />
            <Array as="points" />
            <mxPoint as="offset" />
          </mxGeometry>
        </mxCell>
        <mxCell id="nJQW16D-HQWV5URqUr7l-95" value="&lt;u&gt;cod_fun&lt;/u&gt;" style="ellipse;whiteSpace=wrap;html=1;" parent="1" vertex="1">
          <mxGeometry x="73" y="-862" width="53" height="20" as="geometry" />
        </mxCell>
        <mxCell id="nJQW16D-HQWV5URqUr7l-96" value="fecha" style="ellipse;whiteSpace=wrap;html=1;" parent="1" vertex="1">
          <mxGeometry x="63" y="-828" width="53" height="20" as="geometry" />
        </mxCell>
        <mxCell id="nJQW16D-HQWV5URqUr7l-97" value="" style="edgeStyle=none;orthogonalLoop=1;jettySize=auto;html=1;rounded=0;exitX=0.25;exitY=0;exitDx=0;exitDy=0;entryX=1;entryY=0.5;entryDx=0;entryDy=0;" parent="1" source="nJQW16D-HQWV5URqUr7l-10" target="nJQW16D-HQWV5URqUr7l-95" edge="1">
          <mxGeometry width="80" relative="1" as="geometry">
            <mxPoint x="288" y="-810" as="sourcePoint" />
            <mxPoint x="368" y="-810" as="targetPoint" />
            <Array as="points" />
          </mxGeometry>
        </mxCell>
        <mxCell id="nJQW16D-HQWV5URqUr7l-98" value="" style="edgeStyle=none;orthogonalLoop=1;jettySize=auto;html=1;rounded=0;exitX=0;exitY=0.75;exitDx=0;exitDy=0;entryX=0.5;entryY=1;entryDx=0;entryDy=0;" parent="1" source="nJQW16D-HQWV5URqUr7l-10" target="nJQW16D-HQWV5URqUr7l-96" edge="1">
          <mxGeometry width="80" relative="1" as="geometry">
            <mxPoint x="279" y="-828" as="sourcePoint" />
            <mxPoint x="359" y="-828" as="targetPoint" />
            <Array as="points" />
          </mxGeometry>
        </mxCell>
        <mxCell id="nJQW16D-HQWV5URqUr7l-100" value="1" style="edgeStyle=none;rounded=0;orthogonalLoop=1;jettySize=auto;html=1;endArrow=none;endFill=0;entryX=0;entryY=0.5;entryDx=0;entryDy=0;" parent="1" source="nJQW16D-HQWV5URqUr7l-99" target="nJQW16D-HQWV5URqUr7l-11" edge="1">
          <mxGeometry x="-0.0286" y="14" relative="1" as="geometry">
            <mxPoint y="1" as="offset" />
            <mxPoint x="382.5" y="-805.4999999999999" as="targetPoint" />
          </mxGeometry>
        </mxCell>
        <mxCell id="nJQW16D-HQWV5URqUr7l-101" value="N" style="edgeStyle=none;rounded=0;orthogonalLoop=1;jettySize=auto;html=1;endArrow=none;endFill=0;" parent="1" source="nJQW16D-HQWV5URqUr7l-99" target="nJQW16D-HQWV5URqUr7l-10" edge="1">
          <mxGeometry x="-0.0227" y="-13" relative="1" as="geometry">
            <mxPoint as="offset" />
          </mxGeometry>
        </mxCell>
        <mxCell id="nJQW16D-HQWV5URqUr7l-99" value="Proyecta" style="rhombus;whiteSpace=wrap;html=1;labelBackgroundColor=none;rounded=0;strokeWidth=2;" parent="1" vertex="1">
          <mxGeometry x="279" y="-823.25" width="72" height="35.5" as="geometry" />
        </mxCell>
        <mxCell id="nJQW16D-HQWV5URqUr7l-103" value="N" style="edgeStyle=none;rounded=0;orthogonalLoop=1;jettySize=auto;html=1;entryX=0.5;entryY=1;entryDx=0;entryDy=0;endArrow=none;endFill=0;exitX=0.5;exitY=0;exitDx=0;exitDy=0;" parent="1" source="nJQW16D-HQWV5URqUr7l-102" target="nJQW16D-HQWV5URqUr7l-11" edge="1">
          <mxGeometry x="-0.1818" y="-14" relative="1" as="geometry">
            <mxPoint as="offset" />
            <mxPoint x="472.0050000000001" y="-762.975" as="targetPoint" />
          </mxGeometry>
        </mxCell>
        <mxCell id="nJQW16D-HQWV5URqUr7l-104" value="1" style="edgeStyle=none;rounded=0;orthogonalLoop=1;jettySize=auto;html=1;endArrow=none;endFill=0;exitX=0;exitY=0.5;exitDx=0;exitDy=0;" parent="1" source="nJQW16D-HQWV5URqUr7l-102" target="nJQW16D-HQWV5URqUr7l-12" edge="1">
          <mxGeometry x="-0.3094" y="8" relative="1" as="geometry">
            <mxPoint x="-1" as="offset" />
          </mxGeometry>
        </mxCell>
        <mxCell id="nJQW16D-HQWV5URqUr7l-102" value="Tiene" style="rhombus;whiteSpace=wrap;html=1;labelBackgroundColor=none;rounded=0;strokeWidth=2;" parent="1" vertex="1">
          <mxGeometry x="428.75" y="-738" width="42.5" height="35.5" as="geometry" />
        </mxCell>
        <mxCell id="nJQW16D-HQWV5URqUr7l-111" value="&lt;u&gt;nom_cine&lt;/u&gt;" style="ellipse;whiteSpace=wrap;html=1;" parent="1" vertex="1">
          <mxGeometry x="171" y="-657" width="71" height="20" as="geometry" />
        </mxCell>
        <mxCell id="nJQW16D-HQWV5URqUr7l-112" value="direccion" style="ellipse;whiteSpace=wrap;html=1;" parent="1" vertex="1">
          <mxGeometry x="309" y="-648" width="61" height="20" as="geometry" />
        </mxCell>
        <mxCell id="nJQW16D-HQWV5URqUr7l-113" value="telefono" style="ellipse;whiteSpace=wrap;html=1;fillStyle=auto;strokeColor=default;" parent="1" vertex="1">
          <mxGeometry x="246" y="-648" width="53" height="20" as="geometry" />
        </mxCell>
        <mxCell id="nJQW16D-HQWV5URqUr7l-115" value="" style="edgeStyle=none;orthogonalLoop=1;jettySize=auto;html=1;rounded=0;exitX=0;exitY=1;exitDx=0;exitDy=0;entryX=0.5;entryY=0;entryDx=0;entryDy=0;" parent="1" source="nJQW16D-HQWV5URqUr7l-12" target="nJQW16D-HQWV5URqUr7l-111" edge="1">
          <mxGeometry width="80" relative="1" as="geometry">
            <mxPoint x="576" y="-657" as="sourcePoint" />
            <mxPoint x="719" y="-648" as="targetPoint" />
            <Array as="points" />
          </mxGeometry>
        </mxCell>
        <mxCell id="nJQW16D-HQWV5URqUr7l-116" value="" style="edgeStyle=none;orthogonalLoop=1;jettySize=auto;html=1;rounded=0;exitX=0.5;exitY=1;exitDx=0;exitDy=0;" parent="1" source="nJQW16D-HQWV5URqUr7l-12" target="nJQW16D-HQWV5URqUr7l-113" edge="1">
          <mxGeometry width="80" relative="1" as="geometry">
            <mxPoint x="432" y="-603" as="sourcePoint" />
            <mxPoint x="406.6079298562622" y="-614.7769693825512" as="targetPoint" />
            <Array as="points" />
          </mxGeometry>
        </mxCell>
        <mxCell id="nJQW16D-HQWV5URqUr7l-117" value="" style="edgeStyle=none;orthogonalLoop=1;jettySize=auto;html=1;rounded=0;exitX=1;exitY=1;exitDx=0;exitDy=0;entryX=0.5;entryY=0;entryDx=0;entryDy=0;" parent="1" source="nJQW16D-HQWV5URqUr7l-12" target="nJQW16D-HQWV5URqUr7l-112" edge="1">
          <mxGeometry width="80" relative="1" as="geometry">
            <mxPoint x="549" y="-648" as="sourcePoint" />
            <mxPoint x="375" y="-648" as="targetPoint" />
            <Array as="points" />
          </mxGeometry>
        </mxCell>
        <mxCell id="nJQW16D-HQWV5URqUr7l-124" value="&lt;u&gt;num_sala&lt;/u&gt;" style="ellipse;whiteSpace=wrap;html=1;" parent="1" vertex="1">
          <mxGeometry x="526.5" y="-850.25" width="67.5" height="20" as="geometry" />
        </mxCell>
        <mxCell id="nJQW16D-HQWV5URqUr7l-125" value="cant_butacas" style="ellipse;whiteSpace=wrap;html=1;" parent="1" vertex="1">
          <mxGeometry x="527.04" y="-803" width="84.96" height="20" as="geometry" />
        </mxCell>
        <mxCell id="nJQW16D-HQWV5URqUr7l-126" value="" style="edgeStyle=none;orthogonalLoop=1;jettySize=auto;html=1;rounded=0;exitX=1;exitY=0.25;exitDx=0;exitDy=0;entryX=0;entryY=0.5;entryDx=0;entryDy=0;" parent="1" target="nJQW16D-HQWV5URqUr7l-124" edge="1">
          <mxGeometry width="80" relative="1" as="geometry">
            <mxPoint x="495.0000000000002" y="-828" as="sourcePoint" />
            <mxPoint x="723.5" y="-803.25" as="targetPoint" />
            <Array as="points" />
          </mxGeometry>
        </mxCell>
        <mxCell id="nJQW16D-HQWV5URqUr7l-127" value="" style="edgeStyle=none;orthogonalLoop=1;jettySize=auto;html=1;rounded=0;exitX=0.996;exitY=0.617;exitDx=0;exitDy=0;entryX=0;entryY=0.5;entryDx=0;entryDy=0;exitPerimeter=0;" parent="1" target="nJQW16D-HQWV5URqUr7l-125" edge="1">
          <mxGeometry width="80" relative="1" as="geometry">
            <mxPoint x="495.0000000000003" y="-796.0229999999999" as="sourcePoint" />
            <mxPoint x="688.04" y="-783" as="targetPoint" />
            <Array as="points" />
          </mxGeometry>
        </mxCell>
        <mxCell id="nJQW16D-HQWV5URqUr7l-128" value="cant_d" style="ellipse;whiteSpace=wrap;html=1;dashed=1;" parent="1" vertex="1">
          <mxGeometry x="557" y="-982.25" width="53" height="20" as="geometry" />
        </mxCell>
        <mxCell id="nJQW16D-HQWV5URqUr7l-129" value="cant_a" style="ellipse;whiteSpace=wrap;html=1;dashed=1;" parent="1" vertex="1">
          <mxGeometry x="765" y="-987.25" width="53" height="20" as="geometry" />
        </mxCell>
        <mxCell id="nJQW16D-HQWV5URqUr7l-130" value="" style="edgeStyle=none;orthogonalLoop=1;jettySize=auto;html=1;rounded=0;exitX=0.5;exitY=0;exitDx=0;exitDy=0;entryX=0.5;entryY=1;entryDx=0;entryDy=0;" parent="1" source="nJQW16D-HQWV5URqUr7l-6" target="nJQW16D-HQWV5URqUr7l-128" edge="1">
          <mxGeometry width="80" relative="1" as="geometry">
            <mxPoint x="639" y="-927" as="sourcePoint" />
            <mxPoint x="719" y="-927" as="targetPoint" />
            <Array as="points" />
          </mxGeometry>
        </mxCell>
        <mxCell id="nJQW16D-HQWV5URqUr7l-131" value="" style="edgeStyle=none;orthogonalLoop=1;jettySize=auto;html=1;rounded=0;exitX=0.75;exitY=0;exitDx=0;exitDy=0;entryX=0.5;entryY=1;entryDx=0;entryDy=0;" parent="1" source="nJQW16D-HQWV5URqUr7l-7" target="nJQW16D-HQWV5URqUr7l-129" edge="1">
          <mxGeometry width="80" relative="1" as="geometry">
            <mxPoint x="801" y="-855" as="sourcePoint" />
            <mxPoint x="881" y="-855" as="targetPoint" />
            <Array as="points" />
          </mxGeometry>
        </mxCell>
        <mxCell id="hG9GqMmXp9oZeV3NWWBN-5" value="" style="edgeStyle=none;orthogonalLoop=1;jettySize=auto;html=1;rounded=0;exitX=0.25;exitY=1;exitDx=0;exitDy=0;entryX=0.5;entryY=0;entryDx=0;entryDy=0;" parent="1" source="nJQW16D-HQWV5URqUr7l-8" target="hG9GqMmXp9oZeV3NWWBN-4" edge="1">
          <mxGeometry width="80" relative="1" as="geometry">
            <mxPoint x="252" y="-945" as="sourcePoint" />
            <mxPoint x="332" y="-945" as="targetPoint" />
            <Array as="points" />
          </mxGeometry>
        </mxCell>
        <mxCell id="hG9GqMmXp9oZeV3NWWBN-6" value="h_comienzo" style="ellipse;whiteSpace=wrap;html=1;" parent="1" vertex="1">
          <mxGeometry x="27" y="-787.75" width="76.5" height="20" as="geometry" />
        </mxCell>
        <mxCell id="hG9GqMmXp9oZeV3NWWBN-7" value="" style="edgeStyle=none;orthogonalLoop=1;jettySize=auto;html=1;rounded=0;entryX=1;entryY=0.5;entryDx=0;entryDy=0;exitX=0;exitY=1;exitDx=0;exitDy=0;" parent="1" source="nJQW16D-HQWV5URqUr7l-10" target="hG9GqMmXp9oZeV3NWWBN-6" edge="1">
          <mxGeometry width="80" relative="1" as="geometry">
            <mxPoint x="144" y="-756" as="sourcePoint" />
            <mxPoint x="224" y="-756" as="targetPoint" />
            <Array as="points" />
          </mxGeometry>
        </mxCell>
        <mxCell id="lHMZMmQB0k1qlnQvgj_i-3" value="" style="group" parent="1" vertex="1" connectable="0">
          <mxGeometry x="103.5" y="-967.25" width="64" height="32.5" as="geometry" />
        </mxCell>
        <mxCell id="hG9GqMmXp9oZeV3NWWBN-4" value="" style="ellipse;whiteSpace=wrap;html=1;fillColor=none;" parent="lHMZMmQB0k1qlnQvgj_i-3" vertex="1">
          <mxGeometry width="64" height="32.5" as="geometry" />
        </mxCell>
        <mxCell id="hG9GqMmXp9oZeV3NWWBN-2" value="pais" style="ellipse;whiteSpace=wrap;html=1;" parent="lHMZMmQB0k1qlnQvgj_i-3" vertex="1">
          <mxGeometry x="5.5" y="6.25" width="53" height="20" as="geometry" />
        </mxCell>
        <mxCell id="6pIZhKafA3xbT3JVSaw--1" value="&lt;u&gt;dni&lt;/u&gt;" style="ellipse;whiteSpace=wrap;html=1;" vertex="1" parent="1">
          <mxGeometry x="567" y="-1089" width="53" height="20" as="geometry" />
        </mxCell>
        <mxCell id="6pIZhKafA3xbT3JVSaw--2" value="" style="edgeStyle=none;rounded=0;orthogonalLoop=1;jettySize=auto;html=1;exitX=0;exitY=0;exitDx=0;exitDy=0;entryX=0.5;entryY=1;entryDx=0;entryDy=0;" edge="1" parent="1" source="nJQW16D-HQWV5URqUr7l-3" target="6pIZhKafA3xbT3JVSaw--1">
          <mxGeometry relative="1" as="geometry">
            <mxPoint x="666" y="-1044" as="sourcePoint" />
            <mxPoint x="673" y="-1060" as="targetPoint" />
          </mxGeometry>
        </mxCell>
        <mxCell id="6pIZhKafA3xbT3JVSaw--4" value="" style="group" vertex="1" connectable="0" parent="1">
          <mxGeometry x="637.5" y="-1089" width="53" height="20" as="geometry" />
        </mxCell>
        <mxCell id="nJQW16D-HQWV5URqUr7l-58" value="nombre" style="ellipse;whiteSpace=wrap;html=1;" parent="6pIZhKafA3xbT3JVSaw--4" vertex="1">
          <mxGeometry width="53" height="20" as="geometry" />
        </mxCell>
        <mxCell id="6pIZhKafA3xbT3JVSaw--3" value="" style="edgeStyle=none;orthogonalLoop=1;jettySize=auto;html=1;rounded=0;endArrow=none;endFill=0;" edge="1" parent="6pIZhKafA3xbT3JVSaw--4">
          <mxGeometry width="80" relative="1" as="geometry">
            <mxPoint x="7.5" y="5.5" as="sourcePoint" />
            <mxPoint x="45.5" y="6" as="targetPoint" />
            <Array as="points" />
          </mxGeometry>
        </mxCell>
      </root>
    </mxGraphModel>
  </diagram>
</mxfile>
